<svg width="14" height="14" viewBox="0.1832275390625 0.1832275390625 13.633544921875 13.633544921875" fill="none" xmlns="http://www.w3.org/2000/svg">
<path fill-rule="evenodd" clip-rule="evenodd" d="M0.292894 0.292894C0.683418 -0.0976312 1.31658 -0.0976312 1.70711 0.292894L7.00001 5.58579L12.2929 0.292894C12.6834 -0.0976312 13.3166 -0.0976312 13.7071 0.292894C14.0976 0.683418 14.0976 1.31658 13.7071 1.70711L8.41422 7.00001L13.7071 12.2929C14.0976 12.6834 14.0976 13.3166 13.7071 13.7071C13.3166 14.0976 12.6834 14.0976 12.2929 13.7071L7.00001 8.41422L1.70711 13.7071C1.31658 14.0976 0.683418 14.0976 0.292894 13.7071C-0.0976312 13.3166 -0.0976312 12.6834 0.292894 12.2929L5.58579 7.00001L0.292894 1.70711C-0.0976312 1.31658 -0.0976312 0.683418 0.292894 0.292894Z" fill="white"/>
</svg>
