<svg width="112" height="140" viewBox="0.1881103515625 0.15627288818359375 111.623779296875 139.6874542236328" fill="none" xmlns="http://www.w3.org/2000/svg">
<path d="M105.285 0C107.487 0 109.544 1.10342 110.766 2.94067C111.988 4.77793 112.214 7.10609 111.368 9.14536L104.526 25.6481C102.51 30.5088 97.7773 33.676 92.5289 33.676H49.6984L41.8059 50.514H83.5699C85.9437 50.514 88.1606 51.7035 89.4781 53.6841C90.7955 55.6647 91.0392 58.1746 90.1277 60.373C80.6864 83.1433 61.5178 129.374 61.5178 129.374C58.9112 135.66 52.7984 139.755 46.021 139.755L0.0870934 140L0 103.201L40.9155 102.712L49.3839 84.1899H0.400451L0.0434379 68.0777L25.7694 11.1806C28.8476 4.37264 35.6116 0 43.0646 0C63.5974 0 88.6464 0 105.285 0Z" fill="#FD5703"/>
</svg>
