<svg width="64" height="81" viewBox="0.107513427734375 0.09041595458984375 63.78497314453125 80.81916809082031" fill="none" xmlns="http://www.w3.org/2000/svg">
<path d="M60.163 0C61.4213 0 62.5964 0.638405 63.2947 1.70139C63.993 2.76437 64.1222 4.11138 63.6391 5.29125L59.729 14.8393C58.5774 17.6515 55.8728 19.484 52.8736 19.484H28.3991L23.8891 29.2259H47.7542C49.1107 29.2259 50.3775 29.9142 51.1303 31.0601C51.8831 32.206 52.0224 33.6582 51.5015 34.9301C46.1065 48.1043 35.153 74.8519 35.153 74.8519C33.6635 78.4891 30.1705 80.8584 26.2977 80.8584L0.0497677 81L0 59.7093L23.3803 59.4261L28.2194 48.7099H0.228829L0.0248216 39.3878L14.7254 6.4688C16.4844 2.52989 20.3495 0 24.6084 0C36.3414 0 50.6551 0 60.163 0Z" fill="#FD5703"/>
</svg>
