<svg width="75" height="92" viewBox="0.1259765625 0.10269546508789062 74.748046875 91.79460906982422" fill="none" xmlns="http://www.w3.org/2000/svg">
<path d="M70.5036 0C71.9781 0 73.3552 0.725102 74.1735 1.93244C74.9918 3.13978 75.1433 4.66972 74.577 6.00981L69.9949 16.8545C68.6453 20.0486 65.4759 22.1299 61.9613 22.1299H33.2802L27.995 33.1949H55.962C57.5516 33.1949 59.0361 33.9766 59.9183 35.2781C60.8006 36.5797 60.9638 38.229 60.3534 39.6737C54.0311 54.637 41.1949 85.017 41.1949 85.017C39.4494 89.1482 35.3561 91.8392 30.8176 91.8392L0.0583215 92L0 67.8179L27.3988 67.4963L33.0696 55.3248H0.268159L0.0290879 44.7368L17.2563 7.34728C19.3176 2.87345 23.8471 0 28.8379 0C42.5876 0 59.3615 0 70.5036 0Z" fill="#FD5703"/>
</svg>
