<svg width="9" height="6" viewBox="0 0 9 6" fill="none" xmlns="http://www.w3.org/2000/svg">
<path d="M2.06755 6C1.67111 6 1.31872 5.92966 1.01037 5.78897C0.703866 5.64829 0.461596 5.45247 0.283565 5.20152C0.105534 4.95057 0.0110122 4.66065 0 4.33175H1.03515C1.04433 4.48954 1.0948 4.62738 1.18657 4.74525C1.27834 4.86122 1.40039 4.95152 1.55273 5.01616C1.70506 5.0808 1.87575 5.11312 2.06479 5.11312C2.26669 5.11312 2.44563 5.077 2.60164 5.00475C2.75765 4.93061 2.8797 4.82795 2.9678 4.69677C3.0559 4.56559 3.09903 4.41445 3.09719 4.24335C3.09903 4.06654 3.05498 3.91065 2.96505 3.77567C2.87511 3.64068 2.7448 3.53517 2.57411 3.45913C2.40526 3.38308 2.20153 3.34506 1.96293 3.34506H1.46463V2.52947H1.96293C2.15932 2.52947 2.33092 2.4943 2.47775 2.42395C2.62642 2.35361 2.74297 2.25475 2.82739 2.12738C2.91182 1.9981 2.95312 1.84886 2.95128 1.67966C2.95312 1.51426 2.91733 1.37072 2.84391 1.24905C2.77233 1.12548 2.67047 1.02947 2.53832 0.961027C2.40801 0.892585 2.25476 0.858365 2.07856 0.858365C1.90604 0.858365 1.74636 0.890684 1.59953 0.955323C1.4527 1.01996 1.33432 1.11217 1.24438 1.23194C1.15445 1.34981 1.10673 1.49049 1.10122 1.65399H0.118382C0.125723 1.327 0.216574 1.03992 0.390934 0.792776C0.56713 0.543726 0.802058 0.34981 1.09572 0.211027C1.38938 0.0703423 1.71883 0 2.08407 0C2.46032 0 2.78701 0.0731939 3.06416 0.219582C3.34313 0.364068 3.55879 0.558935 3.71112 0.804183C3.86346 1.04943 3.93963 1.32034 3.93963 1.61692C3.94146 1.94582 3.84786 2.22148 3.65882 2.44392C3.47161 2.66635 3.22567 2.81179 2.921 2.88023V2.92586C3.31744 2.98289 3.62119 3.13498 3.83226 3.38213C4.04516 3.62738 4.1507 3.93251 4.14886 4.29753C4.14886 4.62452 4.05893 4.9173 3.87906 5.17586C3.70103 5.43251 3.45509 5.63403 3.14124 5.78042C2.82923 5.92681 2.47133 6 2.06755 6Z" fill="white"/>
<path d="M6.9765 6C6.60943 6 6.28089 5.92871 5.99091 5.78612C5.70092 5.64163 5.47058 5.44392 5.29989 5.19297C5.13103 4.94201 5.0411 4.65494 5.03009 4.33175H6.02119C6.03954 4.57129 6.13957 4.76711 6.32127 4.9192C6.50297 5.06939 6.72138 5.14449 6.9765 5.14449C7.17656 5.14449 7.35459 5.09696 7.51059 5.0019C7.6666 4.90684 7.78957 4.77471 7.8795 4.60551C7.96944 4.43631 8.01349 4.24335 8.01165 4.02662C8.01349 3.80608 7.96852 3.61027 7.87675 3.43916C7.78498 3.26806 7.65926 3.13403 7.49958 3.03707C7.33991 2.93821 7.15637 2.88878 6.94897 2.88878C6.78012 2.88688 6.61401 2.9192 6.45067 2.98574C6.28732 3.05228 6.15792 3.13973 6.06249 3.2481L5.14021 3.09125L5.43479 0.079848H8.70542V0.963879H6.27998L6.11755 2.51236H6.15058C6.2552 2.38498 6.40295 2.27947 6.59383 2.19582C6.7847 2.11027 6.99394 2.06749 7.22152 2.06749C7.5629 2.06749 7.86758 2.15114 8.13554 2.31844C8.4035 2.48384 8.61457 2.71198 8.76874 3.00285C8.92291 3.29373 9 3.62643 9 4.00095C9 4.38688 8.91374 4.73099 8.74121 5.03327C8.57052 5.33365 8.33284 5.57034 8.02817 5.74335C7.72533 5.91445 7.37478 6 6.9765 6Z" fill="white"/>
</svg>
