<svg width="12" height="15" viewBox="0.118408203125 0.357666015625 11.76318359375 14.28466796875" fill="none" xmlns="http://www.w3.org/2000/svg">
<path d="M9.305 14.1093C9.305 14.1093 10.97 12.0139 11.7757 10.9192C12.3127 8.98016 11.883 6.69689 10.5135 5.1645L6.16278 0.191768C5.94792 -0.0584637 5.62573 -0.0584637 5.38408 0.160571C5.11545 0.410802 5.11545 0.84863 5.33031 1.13005L9.46593 6.13423C9.70759 6.41566 9.6808 6.85351 9.41217 7.10371L9.35841 7.16633C9.11675 7.38536 8.76759 7.38536 8.5527 7.10371L4.47103 1.88072C4.25616 1.63049 3.90697 1.59929 3.66532 1.81811L3.63854 1.8493C3.39688 2.09953 3.36991 2.5062 3.55798 2.81879L7.47895 8.10439C7.69382 8.38582 7.66703 8.82367 7.42519 9.04271L7.37143 9.10532C7.12977 9.35555 6.7538 9.29294 6.53896 9.01151L2.75232 3.63214C2.53745 3.35071 2.18826 3.2881 1.91985 3.53833L1.89306 3.56952C1.65141 3.78856 1.62443 4.19498 1.81251 4.50784L5.51859 10.1061C5.70667 10.3876 5.67969 10.7942 5.43804 11.013L5.3573 11.107C5.08867 11.3573 4.71272 11.2947 4.52483 10.982L1.0336 5.38374C0.84552 5.0709 0.442782 5.0085 0.201132 5.25873C-0.0137341 5.47777 -0.0674973 5.85302 0.0937927 6.16561L3.58503 12.2018C4.87384 14.4222 7.31772 15.1415 9.3052 14.1093L9.305 14.1093Z" fill="white"/>
</svg>
