<svg width="14" height="14" viewBox="0.1832275390625 0.18310546875 13.633544921875 13.6337890625" fill="none" xmlns="http://www.w3.org/2000/svg">
<path fill-rule="evenodd" clip-rule="evenodd" d="M0.292888 0.292888C0.683406 -0.0976295 1.31656 -0.0976295 1.70708 0.292888L6.99988 5.58569L12.2927 0.292888C12.6832 -0.0976295 13.3164 -0.0976295 13.7069 0.292888C14.0974 0.683406 14.0974 1.31656 13.7069 1.70708L8.41407 6.99988L13.7069 12.2927C14.0974 12.6832 14.0974 13.3164 13.7069 13.7069C13.3164 14.0974 12.6832 14.0974 12.2927 13.7069L6.99988 8.41407L1.70708 13.7069C1.31656 14.0974 0.683406 14.0974 0.292888 13.7069C-0.0976295 13.3164 -0.0976295 12.6832 0.292888 12.2927L5.58569 6.99988L0.292888 1.70708C-0.0976295 1.31656 -0.0976295 0.683406 0.292888 0.292888Z" fill="white"/>
</svg>
